<?xml version="1.0" encoding="UTF-8"?>
<svg id="Layer_1" data-name="Layer 1" xmlns="http://www.w3.org/2000/svg" xmlns:xlink="http://www.w3.org/1999/xlink" viewBox="0 0 770.4 137.45">
  <defs>
    <style>
      .cls-1 {
        fill: none;
      }

      .cls-2 {
        fill: #13283d;
      }

      .cls-3 {
        fill: #284164;
      }

      .cls-4 {
        clip-path: url(#clippath);
      }
    </style>
    <clipPath id="clippath">
      <path class="cls-1" d="M136.42,68.96c0,6.73-.99,13.23-2.84,19.36-8.3,27.63-33.94,47.75-64.27,47.75S13.35,115.95,5.04,88.32c-1.85-6.13-2.84-12.62-2.84-19.36C2.2,31.9,32.25,1.86,69.31,1.86s67.11,30.04,67.11,67.11Z"/>
    </clipPath>
  </defs>
  <g>
    <path class="cls-2" d="M2.56,18.39s-.91,4.47,6.13,7.3c7.04,2.83,6.84,4.92,6.84,4.92-2.97.44-10,1.78-10,1.78,0,0,3.34.5,9.17,1.07,2.56.25,1.9,2.98,6.87,2.54,4.97-.44,5.59-5.23,9.5-5.5s8.99.92,11.37-1.53l2.38-2.45s-3.73.05-11.58-.5c-7.85-.55-12.4,4.01-14.72.68-2.32-3.33-3.39-3.69-7.93-4.99-4.53-1.31-8.03-3.32-8.03-3.32Z"/>
    <g>
      <path class="cls-2" d="M122,53.67c-.16-.53-.28-1.15-.49-1.65-.09.8-.26,1.64-.67,2.37-.29.52-.66.2-.96-.24-.24-.35-.39-.65-.41-1.11-.05-1.11.44-2.41-.09-3.45-.44-.87-1.29-1.58-1.96-2.26-.09.42-.09.81-.23,1.23-.2.57-.48,1.18-.98,1.54-.51.37-.99.59-1.27,1.18-.23.48-.21.95-.21,1.47,0,.59.23,1.16-.31,1.59-.28.22-.59.17-.71-.23-.1-.31-.06-.54-.25-.82-.15-.22-.22-.45-.22-.73v-.03c0,1.25-.56,2.53-.53,3.78.02.61.12,1.43.38,1.98.7,1.48,1.9,1.79,2.32,1.93.56.2,1.13.24,1.7.32.56.08,1.6-.14,2.15-.28,2.33-.57,3.11-2.43,3.11-4.65,0-.7-.19-1.28-.39-1.94ZM117.7,58.94c-1.28,0-2.2-.65-1.58-2.05.54-1.32,1.12-1.64,1.48-3.09.1,1.5,1.08,2.16,1.47,3.4.16.78-.09,1.74-1.37,1.74Z"/>
      <g>
        <path class="cls-2" d="M110.18,63.74s-.15,2.02.62,2.33c.78.31,14.43-4.58,14.43-4.58,0,0,.07-3.11-1.77-2.06-1.4.79-13.28,4.31-13.28,4.31Z"/>
        <path class="cls-2" d="M110.78,59.38s-1.25,1.59-.78,2.28c.47.69,14.53,4.26,14.53,4.26,0,0,1.8-2.54-.32-2.69-1.6-.12-13.43-3.84-13.43-3.84Z"/>
      </g>
    </g>
    <path class="cls-2" d="M128.72,35.25c.02,2.19.01,4.82-.07,7.44,3.48,7.98,5.42,16.79,5.42,26.04,0,36.03-29.32,65.35-65.35,65.35S3.37,104.76,3.37,68.72,32.69,3.38,68.72,3.38c12.1,0,23.44,3.31,33.16,9.06.71-.75,1.57-1.61,2.5-2.44C93.98,3.66,81.77,0,68.72,0,30.83,0,0,30.83,0,68.72s30.83,68.72,68.72,68.72,68.72-30.83,68.72-68.72c0-12.15-3.17-23.56-8.72-33.48Z"/>
    <g>
      <g>
        <path class="cls-2" d="M127.26,39.5h-6.11v2.81h6.11c.78,0,1.41-.63,1.41-1.41s-.63-1.41-1.41-1.41Z"/>
        <path class="cls-2" d="M94.15,42.31v-2.81h-4.15c.79.89,1.54,1.83,2.24,2.81h1.91Z"/>
      </g>
      <path class="cls-2" d="M123.02,20.05h-30.38c-.78,0-1.41-.63-1.41-1.41s.63-1.41,1.41-1.41h30.38c.78,0,1.41.63,1.41,1.41s-.63,1.41-1.41,1.41Z"/>
      <path class="cls-2" d="M127.71,23.68h-40.31c-.78,0-1.41-.63-1.41-1.41s.63-1.41,1.41-1.41h40.31c.78,0,1.41.63,1.41,1.41s-.63,1.41-1.41,1.41Z"/>
      <path class="cls-2" d="M120.02,45.69l-22.36-.07s-.51-.86-.91-1.4c-.43-.58-1.41-1.08-1.41-1.08l-.07-14.32h24.75v16.88Z"/>
      <path class="cls-2" d="M130.24,54.71s-.95.75-1.31.95c-.39.22-1.66.73-1.66.73l.64-32.65h2.56l-.24,30.96Z"/>
      <path class="cls-2" d="M132.86,24.27s.61,1.59.64,2.27c.03.66,0,1.49,0,1.49l-27.1-20.4,1.27-2.24,25.19,18.88Z"/>
      <path class="cls-2" d="M82.44,24.27s-.61,1.59-.64,2.27c-.03.66,0,1.49,0,1.49l27.1-20.4-1.23-2.24-25.23,18.88Z"/>
      <path class="cls-2" d="M112.26,12.18h-9.41c-.78,0-1.41-.63-1.41-1.41s.63-1.41,1.41-1.41h9.41c.78,0,1.41.63,1.41,1.41s-.63,1.41-1.41,1.41Z"/>
      <path class="cls-2" d="M117.12,16.12h-19.15c-.78,0-1.41-.63-1.41-1.41s.63-1.41,1.41-1.41h19.15c.78,0,1.41.63,1.41,1.41s-.63,1.41-1.41,1.41Z"/>
      <path class="cls-2" d="M87.4,23.75h-2.81v10.81c.97.71,1.91,1.48,2.81,2.3v-13.11Z"/>
    </g>
    <g>
      <path class="cls-2" d="M3.93,85.69l1.94,2.76c.13-.09,11.36-7.84,29.06-13.24-.45-1.03-.86-2.09-1.2-3.17-18.03,5.5-29.25,13.27-29.79,13.65Z"/>
      <path class="cls-2" d="M133.7,87.22c-12.43-8.36-25.54-14.22-39.07-17.47-.26,1.1-.57,2.19-.95,3.24,13.2,3.16,25.99,8.86,38.14,17.03l1.88-2.8Z"/>
    </g>
    <g class="cls-4">
      <path class="cls-2" d="M83.99,100.95c14.85,3.85,44.27.05,44.27.05,0,0,1.63-3.72,5.09-12.68-11.58,5.94-30.25,5.74-54.64,2.08-4.43,2.36-9.48,3.7-14.85,3.7-8.28,0-15.82-3.19-21.45-8.4-21.93-.19-36.8,5.92-36.8,5.92l.19.79c.56,2.8,5.5,12.79,12.6,20.59,28.59,3.71,50.03-1.89,72.04,10.39-16.24-5.03-51.14-2.8-59.78-1.09,0,0,15.07,14.15,40.84,13.48,31.61-.82,39.32-14.33,49.6-23.92,0,0-8.62,2.72-38.11-5.38-45.04-12.37-60.91-1.35-60.91-1.35,0,0,8.33-6.41,17.69-7.85,13.66-2.11,29.37-.19,44.22,3.67Z"/>
    </g>
    <g>
      <path class="cls-1" d="M64.99,61.73c-.32.21-.63.44-.93.66.31-.23.62-.45.93-.66Z"/>
      <path class="cls-1" d="M64.61,61.98c-.06.05-.12.11-.18.16.06-.05.12-.11.18-.16Z"/>
      <path class="cls-1" d="M63.94,62.35h0c.39-.21.78-.4,1.17-.59-.39.19-.78.38-1.17.59h0Z"/>
      <path class="cls-1" d="M64.16,62.1c.24-.03.48-.05.73-.08-.23.02-.47.05-.7.08,0,0-.01,0-.02,0Z"/>
      <path class="cls-1" d="M64.64,62s.01,0,.02,0c-.09.04-.18.08-.27.12.08-.04.17-.08.25-.12Z"/>
      <path class="cls-1" d="M65.09,61.74c-.38.21-.76.42-1.13.65.37-.22.75-.44,1.13-.65Z"/>
      <path class="cls-1" d="M64.71,61.91c-.13.1-.26.2-.39.3.13-.1.26-.2.39-.3Z"/>
      <path class="cls-1" d="M64.9,61.82c-.25.16-.51.32-.75.48.25-.16.5-.32.75-.48Z"/>
      <path class="cls-3" d="M64.83,61.8c-.21.17-.42.34-.63.52.21-.18.42-.35.63-.52Z"/>
      <path class="cls-3" d="M64.8,61.84c-.19.14-.38.29-.56.43.19-.15.37-.29.56-.43Z"/>
      <path class="cls-3" d="M64.7,61.95c-.12.07-.24.15-.37.22.12-.07.24-.15.37-.22Z"/>
      <path class="cls-3" d="M64.72,61.93c-.13.09-.27.17-.4.26.13-.09.27-.18.4-.26Z"/>
      <path class="cls-3" d="M64.74,61.96c-.15.07-.29.13-.43.2.14-.07.29-.14.43-.2Z"/>
      <polygon class="cls-3" points="64.52 62.06 64.52 62.06 64.52 62.06 64.52 62.06"/>
      <path class="cls-1" d="M64.99,61.73c-.32.21-.63.44-.93.66.31-.23.62-.45.93-.66Z"/>
      <path class="cls-1" d="M64.61,61.98c-.06.05-.12.11-.18.16.06-.05.12-.11.18-.16Z"/>
      <path class="cls-1" d="M63.94,62.35h0c.39-.21.78-.4,1.17-.59-.39.19-.78.38-1.17.59h0Z"/>
      <path class="cls-1" d="M64.16,62.1c.24-.03.48-.05.73-.08-.23.02-.47.05-.7.08,0,0-.01,0-.02,0Z"/>
      <path class="cls-1" d="M64.64,62s.01,0,.02,0c-.09.04-.18.08-.27.12.08-.04.17-.08.25-.12Z"/>
      <path class="cls-1" d="M65.09,61.74c-.38.21-.76.42-1.13.65.37-.22.75-.44,1.13-.65Z"/>
      <path class="cls-1" d="M64.71,61.91c-.13.1-.26.2-.39.3.13-.1.26-.2.39-.3Z"/>
      <path class="cls-1" d="M64.9,61.82c-.25.16-.51.32-.75.48.25-.16.5-.32.75-.48Z"/>
      <path class="cls-3" d="M64.83,61.8c-.21.17-.42.34-.63.52.21-.18.42-.35.63-.52Z"/>
      <path class="cls-3" d="M64.8,61.84c-.19.14-.38.29-.56.43.19-.15.37-.29.56-.43Z"/>
      <path class="cls-3" d="M64.7,61.95c-.12.07-.24.15-.37.22.12-.07.24-.15.37-.22Z"/>
      <path class="cls-3" d="M64.72,61.93c-.13.09-.27.17-.4.26.13-.09.27-.18.4-.26Z"/>
      <path class="cls-3" d="M64.74,61.96c-.15.07-.29.13-.43.2.14-.07.29-.14.43-.2Z"/>
      <polygon class="cls-3" points="64.52 62.06 64.52 62.06 64.52 62.06 64.52 62.06"/>
      <path class="cls-1" d="M78.88,36.57c-.15-.08-.3-.17-.44-.25.15.08.3.16.44.25Z"/>
      <path class="cls-1" d="M77.7,35.94c-.16-.08-.31-.16-.47-.23.16.08.31.15.47.23Z"/>
      <path class="cls-1" d="M81.11,37.98c-.12-.08-.24-.17-.36-.25.12.08.24.17.36.25Z"/>
      <path class="cls-1" d="M82.13,38.71c-.09-.07-.18-.14-.27-.21.09.07.18.14.27.21Z"/>
      <path class="cls-1" d="M80.01,37.26c-.14-.09-.27-.17-.41-.25.14.08.27.17.41.25Z"/>
      <path class="cls-1" d="M85.27,41.46c.14.14.27.28.41.43-.14-.14-.27-.28-.41-.42,0,0,0,0,0,0Z"/>
      <path class="cls-1" d="M89.47,46.78c-.18-.29-.36-.57-.54-.84.18.28.36.56.54.84Z"/>
      <path class="cls-1" d="M86.81,43.13c-.17-.2-.35-.4-.52-.59.18.2.35.39.52.59Z"/>
      <path class="cls-1" d="M88.71,45.62c-.24-.35-.48-.69-.73-1.02.25.33.49.67.73,1.02Z"/>
      <path class="cls-1" d="M87.69,44.21c-.17-.21-.33-.42-.5-.63.17.21.34.42.5.63Z"/>
      <path class="cls-1" d="M90.35,48.3c-.21-.4-.44-.78-.67-1.17.23.38.45.77.67,1.17Z"/>
      <path class="cls-2" d="M35.18,78.04c5.94,11.02,17.29,17.29,29.01,17.29,5.26,0,10.6-1.26,15.55-3.93,7.72-4.16,13.37-11.09,15.89-19.52,2.53-8.42,1.62-17.32-2.54-25.04-8.6-15.97-28.59-21.96-44.56-13.36-7.72,4.16-13.37,11.09-15.89,19.52-2.53,8.42-1.62,17.32,2.54,25.04ZM35.62,53.89c1.65-5.52,4.79-10.32,9.04-13.98.06-.05.12-.11.18-.16.21-.18.42-.35.63-.52.13-.1.26-.2.39-.3.19-.15.37-.29.56-.43.31-.23.62-.45.93-.66.13-.09.27-.18.4-.26.25-.16.5-.32.75-.48.12-.07.24-.15.37-.22.37-.22.75-.44,1.13-.65,0,0,0,0,0,0h0c.39-.21.78-.4,1.17-.59.14-.07.29-.14.43-.21.08-.04.17-.08.25-.12,0,0,.01,0,.02,0,2.79-1.26,5.69-2.06,8.6-2.41,0,0-.01,0-.02,0,.24-.03.49-.05.73-.08.05,0,.11-.01.16-.02.42-.04.83-.07,1.25-.09.1,0,.2,0,.3-.01.39-.02.79-.03,1.18-.03.02,0,.04,0,.06,0,.13,0,.27,0,.4,0,.32,0,.64.01.96.03.17,0,.35.02.52.03.28.02.56.04.83.06.19.02.38.04.57.06.26.03.52.06.78.1.2.03.39.06.59.09.25.04.5.08.75.13.2.04.4.08.6.12.24.05.48.11.72.16.2.05.41.09.61.15.23.06.47.13.7.19.2.06.41.11.61.17.23.07.45.15.67.22.44.14.87.3,1.3.46.17.06.33.12.5.19.25.1.49.21.74.32.16.07.33.14.49.21.25.11.49.23.73.35.16.08.31.15.47.23.24.12.49.25.73.39.15.08.3.16.44.25.24.14.49.28.73.43.14.08.27.17.41.25.25.15.49.31.73.47.12.08.24.17.36.25.25.17.5.35.75.53.09.07.18.14.27.21,1.1.83,2.16,1.75,3.14,2.74,0,0,0,0,0,0,.14.14.27.28.41.43.2.21.41.43.61.65.18.2.35.39.52.59.13.15.25.3.37.45.17.21.34.42.5.63.1.13.2.26.3.39.25.33.49.67.73,1.02.07.11.14.22.22.32.18.28.36.56.54.84.07.12.14.23.21.35.23.38.45.77.67,1.17,0,0,0,0,0,.01,3.77,6.99,4.58,15.05,2.3,22.68-1.67,5.57-4.85,10.41-9.16,14.09-.03.03-.07.06-.1.09-.33.28-.67.55-1.02.82-.07.05-.13.11-.2.16-.32.24-.64.47-.98.7-.1.07-.19.14-.29.2-.32.22-.65.43-.99.64-.11.07-.21.14-.32.2-.44.27-.89.52-1.34.77-.31.17-.62.33-.93.48-.09.04-.18.09-.27.13-.23.11-.46.22-.69.32-.1.04-.19.08-.29.13-.24.1-.48.21-.71.3-.08.03-.16.06-.24.1-.28.11-.57.22-.85.32-.03.01-.07.02-.1.04-3.27,1.17-6.65,1.74-10,1.74-2.1,0-4.19-.23-6.23-.66-.02,0-.04,0-.06-.01-.34-.07-.68-.15-1.02-.24-.02,0-.04,0-.05-.01h0c-7.81-1.98-14.8-7.09-18.91-14.73-3.77-6.99-4.58-15.05-2.3-22.68Z"/>
      <path class="cls-3" d="M78.43,36.33c-.24-.13-.48-.26-.73-.39.24.12.49.25.73.39Z"/>
      <path class="cls-3" d="M81.86,38.51c-.25-.18-.5-.36-.75-.53.25.17.5.35.75.53Z"/>
      <path class="cls-3" d="M80.75,37.73c-.24-.16-.49-.32-.73-.47.25.15.49.31.73.47Z"/>
      <path class="cls-3" d="M89.68,47.14c-.07-.12-.14-.23-.21-.35.07.12.14.23.21.35Z"/>
      <path class="cls-3" d="M79.6,37c-.24-.15-.48-.29-.73-.43.24.14.49.28.73.43Z"/>
      <path class="cls-3" d="M88.93,45.94c-.07-.11-.14-.22-.22-.32.07.11.14.22.22.32Z"/>
      <path class="cls-3" d="M87.99,44.6c-.1-.13-.2-.26-.3-.39.1.13.2.26.3.39Z"/>
      <path class="cls-3" d="M87.18,43.58c-.12-.15-.25-.3-.37-.45.13.15.25.3.37.45Z"/>
      <path class="cls-3" d="M86.29,42.54c-.2-.22-.4-.44-.61-.65.2.21.41.43.61.65Z"/>
      <path class="cls-1" d="M78.88,36.57c-.15-.08-.3-.17-.44-.25.15.08.3.16.44.25Z"/>
      <path class="cls-1" d="M77.7,35.94c-.16-.08-.31-.16-.47-.23.16.08.31.15.47.23Z"/>
      <path class="cls-1" d="M81.11,37.98c-.12-.08-.24-.17-.36-.25.12.08.24.17.36.25Z"/>
      <path class="cls-1" d="M82.13,38.71c-.09-.07-.18-.14-.27-.21.09.07.18.14.27.21Z"/>
      <path class="cls-1" d="M80.01,37.26c-.14-.09-.27-.17-.41-.25.14.08.27.17.41.25Z"/>
      <path class="cls-1" d="M85.27,41.46c.14.14.27.28.41.43-.14-.14-.27-.28-.41-.42,0,0,0,0,0,0Z"/>
      <path class="cls-1" d="M89.47,46.78c-.18-.29-.36-.57-.54-.84.18.28.36.56.54.84Z"/>
      <path class="cls-1" d="M86.81,43.13c-.17-.2-.35-.4-.52-.59.18.2.35.39.52.59Z"/>
      <path class="cls-1" d="M88.71,45.62c-.24-.35-.48-.69-.73-1.02.25.33.49.67.73,1.02Z"/>
      <path class="cls-1" d="M87.69,44.21c-.17-.21-.33-.42-.5-.63.17.21.34.42.5.63Z"/>
      <path class="cls-1" d="M90.35,48.3c-.21-.4-.44-.78-.67-1.17.23.38.45.77.67,1.17Z"/>
      <path class="cls-3" d="M78.43,36.33c-.24-.13-.48-.26-.73-.39.24.12.49.25.73.39Z"/>
      <path class="cls-3" d="M81.86,38.51c-.25-.18-.5-.36-.75-.53.25.17.5.35.75.53Z"/>
      <path class="cls-3" d="M80.75,37.73c-.24-.16-.49-.32-.73-.47.25.15.49.31.73.47Z"/>
      <path class="cls-3" d="M89.68,47.14c-.07-.12-.14-.23-.21-.35.07.12.14.23.21.35Z"/>
      <path class="cls-3" d="M79.6,37c-.24-.15-.48-.29-.73-.43.24.14.49.28.73.43Z"/>
      <path class="cls-3" d="M88.93,45.94c-.07-.11-.14-.22-.22-.32.07.11.14.22.22.32Z"/>
      <path class="cls-3" d="M87.99,44.6c-.1-.13-.2-.26-.3-.39.1.13.2.26.3.39Z"/>
      <path class="cls-3" d="M87.18,43.58c-.12-.15-.25-.3-.37-.45.13.15.25.3.37.45Z"/>
      <path class="cls-3" d="M86.29,42.54c-.2-.22-.4-.44-.61-.65.2.21.41.43.61.65Z"/>
      <g>
        <polygon class="cls-2" points="85.64 83.04 85.64 83.04 85.65 83.04 85.64 83.04"/>
        <path class="cls-2" d="M65.64,86.38c10.72-1.39,18.43-6.99,23.12-11.6,1.31-1.29,2.44-2.56,3.43-3.75.11-.35.2-.67.28-.97h0c.55-2.04.87-4.11.98-6.17-2.42,4.01-11.87,17.72-29.1,19.52-.86-2.42-1.38-4.98-1.69-7.32,17.32-5.34,25.86-17.13,29.24-23.19-.44-1.27-.97-2.52-1.59-3.73-1.91,4-9.68,17.86-27.97,23.77-.29-4.2-.07-7.81.07-9.41,5.66-2.47,11.24-6.98,16.61-13.4,2.94-3.52,5.01-6.66,6.01-8.28-.02-.02-.05-.05-.07-.07h0c-.71-.71-1.47-1.4-2.27-2.05-.44.72-1.31,2.1-2.55,3.85-1.97-1.89-8.88-7.92-18.42-10.37-.4.03-.8.06-1.19.11h0c-2.56.32-5.07.97-7.46,1.95,13.26-.26,23.66,9.33,25.2,10.82-1.56,2.01-3.47,4.25-5.65,6.41-1.44-1.59-4.22-4.33-8.22-6.76-4.62-2.81-11.66-5.59-20.46-4.61-.06.05-.12.11-.17.16l-.22.22c-1.05,1.03-2.03,2.16-2.91,3.34,7.75-1.83,15.16-.67,22.05,3.48,3.74,2.25,6.36,4.86,7.65,6.29-2.67,2.35-5.67,4.47-8.91,5.93-2.5-2.95-10.81-11.29-24.01-10.27-.48,1.06-.9,2.15-1.25,3.26,1.66-.22,3.25-.29,4.74-.21-1.38,3.91-3.94,13.09-2.23,23.75.07.11.13.22.2.33,1.28,2.15,2.8,4.11,4.55,5.84-4.6-13.27-.71-25.86.66-29.55,2.83.53,5.3,1.52,7.39,2.68-1.76,4.15-6.21,17.44.84,32.91,1.39.61,2.8,1.11,4.22,1.49-8.07-14.82-4.12-28.23-2.38-32.7,2.72,1.95,4.47,3.94,5.18,4.82-.35,3.55-1.44,20.2,6.27,28.86.11,0,.4,0,.4-.01h0c1.12-.07,2.39-.23,3.61-.46-1.65-1.29-3-2.99-4-4.9Z"/>
      </g>
    </g>
  </g>
  <g>
    <path class="cls-2" d="M199.84,67.74c0-5.83.98-11.12,2.94-15.86s4.69-8.77,8.19-12.1c3.5-3.33,7.66-5.89,12.46-7.67,4.8-1.79,10.06-2.68,15.76-2.68s10.95.89,15.76,2.68c4.81,1.78,8.96,4.34,12.46,7.67,3.5,3.33,6.23,7.37,8.19,12.1,1.96,4.74,2.94,10.03,2.94,15.86s-.98,11.12-2.94,15.86c-1.96,4.74-4.69,8.77-8.19,12.1-3.5,3.33-7.66,5.89-12.46,7.67-4.81,1.78-10.06,2.68-15.76,2.68s-10.95-.89-15.76-2.68c-4.81-1.78-8.96-4.34-12.46-7.67-3.5-3.33-6.23-7.36-8.19-12.1-1.96-4.74-2.94-10.02-2.94-15.86ZM216.53,67.74c0,3.43.53,6.58,1.6,9.42,1.06,2.85,2.59,5.32,4.58,7.42,1.99,2.09,4.38,3.72,7.16,4.89,2.78,1.17,5.89,1.75,9.32,1.75s6.54-.58,9.32-1.75c2.78-1.17,5.17-2.8,7.16-4.89,1.99-2.09,3.52-4.57,4.58-7.42,1.06-2.85,1.6-5.99,1.6-9.42s-.53-6.49-1.6-9.37c-1.06-2.88-2.59-5.37-4.58-7.47-1.99-2.09-4.38-3.72-7.16-4.89-2.78-1.17-5.89-1.75-9.32-1.75s-6.54.58-9.32,1.75c-2.78,1.17-5.17,2.8-7.16,4.89-1.99,2.09-3.52,4.58-4.58,7.47-1.07,2.88-1.6,6.01-1.6,9.37Z"/>
    <path class="cls-2" d="M287.8,95.35c0-1.3.24-2.54.72-3.71.48-1.17,1.15-2.18,2.01-3.04.86-.86,1.87-1.53,3.04-2.01,1.17-.48,2.4-.72,3.71-.72s2.54.24,3.71.72c1.17.48,2.18,1.15,3.04,2.01.86.86,1.53,1.87,2.01,3.04.48,1.17.72,2.4.72,3.71s-.24,2.54-.72,3.71c-.48,1.17-1.15,2.18-2.01,3.04-.86.86-1.87,1.53-3.04,2.01-1.17.48-2.4.72-3.71.72s-2.54-.24-3.71-.72c-1.17-.48-2.18-1.15-3.04-2.01-.86-.86-1.53-1.87-2.01-3.04-.48-1.17-.72-2.4-.72-3.71Z"/>
    <path class="cls-2" d="M319.93,31.29h16.07v27.19h31.21v-27.19h16.07v72.92h-16.07v-31.52h-31.21v31.52h-16.07V31.29Z"/>
    <path class="cls-2" d="M396.45,95.35c0-1.3.24-2.54.72-3.71.48-1.17,1.15-2.18,2.01-3.04.86-.86,1.87-1.53,3.04-2.01,1.17-.48,2.4-.72,3.71-.72s2.54.24,3.71.72c1.17.48,2.18,1.15,3.04,2.01.86.86,1.53,1.87,2.01,3.04.48,1.17.72,2.4.72,3.71s-.24,2.54-.72,3.71c-.48,1.17-1.15,2.18-2.01,3.04-.86.86-1.87,1.53-3.04,2.01-1.17.48-2.4.72-3.71.72s-2.54-.24-3.71-.72c-1.17-.48-2.18-1.15-3.04-2.01-.86-.86-1.53-1.87-2.01-3.04-.48-1.17-.72-2.4-.72-3.71Z"/>
    <path class="cls-2" d="M428.58,31.29h27.19c3.16,0,6.33.22,9.53.67,3.19.45,6.06,1.34,8.6,2.68,2.54,1.34,4.6,3.21,6.18,5.61,1.58,2.41,2.37,5.6,2.37,9.58s-1.15,7.53-3.45,10.25c-2.3,2.71-5.34,4.65-9.11,5.82v.2c2.4.34,4.58,1.02,6.54,2.01,1.96,1,3.64,2.27,5.05,3.81,1.41,1.54,2.49,3.35,3.24,5.41.75,2.06,1.13,4.26,1.13,6.59,0,3.85-.82,7.06-2.47,9.63-1.65,2.58-3.78,4.65-6.39,6.23-2.61,1.58-5.54,2.71-8.81,3.4-3.26.69-6.51,1.03-9.73,1.03h-29.87V31.29ZM444.65,60.43h11.64c1.24,0,2.45-.14,3.66-.41,1.2-.27,2.28-.72,3.24-1.34.96-.62,1.73-1.44,2.32-2.47.58-1.03.88-2.27.88-3.71s-.33-2.76-.98-3.76c-.65-.99-1.49-1.77-2.52-2.32-1.03-.55-2.2-.94-3.5-1.18-1.31-.24-2.58-.36-3.81-.36h-10.92v15.55ZM444.65,90.61h14.42c1.24,0,2.49-.14,3.76-.41,1.27-.27,2.42-.75,3.45-1.44,1.03-.69,1.87-1.58,2.52-2.68.65-1.1.98-2.44.98-4.02,0-1.71-.43-3.1-1.29-4.17-.86-1.06-1.94-1.87-3.24-2.42-1.31-.55-2.71-.93-4.22-1.13-1.51-.21-2.92-.31-4.22-.31h-12.15v16.58Z"/>
    <path class="cls-2" d="M495.93,31.29h49.54v14.83h-33.47v13.59h31.62v14.83h-31.62v14.83h35.33v14.83h-51.39V31.29Z"/>
    <path class="cls-2" d="M584.2,31.29h13.28l31.72,72.92h-18.13l-6.28-15.45h-28.32l-6.08,15.45h-17.71l31.52-72.92ZM590.38,52.5l-8.86,22.66h17.82l-8.96-22.66Z"/>
    <path class="cls-2" d="M684.2,50.24c-1.58-1.92-3.52-3.4-5.82-4.43-2.3-1.03-4.96-1.55-7.98-1.55s-5.82.58-8.39,1.75c-2.57,1.17-4.81,2.8-6.7,4.89-1.89,2.09-3.36,4.58-4.43,7.47-1.07,2.88-1.6,6.01-1.6,9.37s.53,6.58,1.6,9.42c1.06,2.85,2.52,5.32,4.38,7.42,1.85,2.09,4.03,3.72,6.54,4.89,2.5,1.17,5.2,1.75,8.08,1.75,3.3,0,6.21-.69,8.75-2.06,2.54-1.37,4.63-3.3,6.28-5.77l13.39,9.99c-3.09,4.33-7,7.52-11.74,9.58-4.74,2.06-9.61,3.09-14.62,3.09-5.7,0-10.95-.89-15.76-2.68-4.81-1.78-8.96-4.34-12.46-7.67-3.5-3.33-6.23-7.36-8.19-12.1-1.96-4.74-2.94-10.02-2.94-15.86s.98-11.12,2.94-15.86c1.96-4.74,4.69-8.77,8.19-12.1,3.5-3.33,7.66-5.89,12.46-7.67,4.81-1.79,10.06-2.68,15.76-2.68,2.06,0,4.21.19,6.44.57,2.23.38,4.43.98,6.59,1.8s4.24,1.92,6.23,3.3c1.99,1.37,3.78,3.06,5.35,5.05l-12.36,10.09Z"/>
    <path class="cls-2" d="M707.06,31.29h16.07v27.19h31.21v-27.19h16.07v72.92h-16.07v-31.52h-31.21v31.52h-16.07V31.29Z"/>
  </g>
</svg>