<?xml version="1.0" encoding="UTF-8"?>
<svg id="Layer_1" data-name="Layer 1" xmlns="http://www.w3.org/2000/svg" xmlns:xlink="http://www.w3.org/1999/xlink" viewBox="0 0 253.58 303.22">
  <defs>
    <style>
      .cls-1 {
        fill: none;
      }

      .cls-2 {
        fill: #13283d;
      }

      .cls-3 {
        fill: #284164;
      }

      .cls-4 {
        clip-path: url(#clippath);
      }
    </style>
    <clipPath id="clippath">
      <path class="cls-1" d="M246.74,122.6c0,11.97-1.76,23.52-5.05,34.41-14.76,49.11-60.33,84.89-114.26,84.89S27.94,206.13,13.18,157.01c-3.29-10.9-5.05-22.44-5.05-34.41C8.13,56.71,61.54,3.3,127.43,3.3s119.3,53.41,119.3,119.3Z"/>
    </clipPath>
  </defs>
  <path class="cls-2" d="M8.77,32.69s-1.62,7.94,10.9,12.97c12.52,5.03,12.16,8.75,12.16,8.75-5.28.78-17.78,3.17-17.78,3.17,0,0,5.94.9,16.3,1.91,4.55.45,3.37,5.29,12.21,4.51,8.83-.79,9.94-9.29,16.9-9.77s15.99,1.63,20.21-2.72l4.22-4.35s-6.63.09-20.6-.88c-13.96-.98-22.04,7.12-26.17,1.2-4.13-5.92-6.03-6.56-14.09-8.88-8.05-2.32-14.27-5.9-14.27-5.9Z"/>
  <g>
    <path class="cls-2" d="M221.11,95.42c-.28-.94-.5-2.04-.86-2.93-.16,1.42-.47,2.92-1.19,4.22-.52.93-1.17.35-1.71-.43-.43-.63-.68-1.15-.72-1.97-.08-1.97.78-4.29-.15-6.14-.79-1.55-2.3-2.81-3.48-4.02-.16.74-.16,1.43-.42,2.19-.35,1.02-.85,2.1-1.74,2.74-.91.65-1.76,1.05-2.26,2.1-.4.85-.38,1.69-.37,2.61.01,1.05.41,2.06-.55,2.83-.49.39-1.04.3-1.26-.41-.17-.56-.1-.96-.44-1.46-.26-.39-.38-.8-.39-1.29v-.05c0,2.23-.99,4.5-.93,6.72.03,1.08.21,2.54.67,3.52,1.24,2.64,3.38,3.17,4.12,3.44,1,.35,2.01.43,3.03.57.99.14,2.84-.25,3.82-.49,4.15-1.01,5.53-4.33,5.53-8.28,0-1.24-.33-2.27-.69-3.45ZM213.46,104.78c-2.27.01-3.91-1.16-2.81-3.64.96-2.35,2-2.92,2.63-5.5.18,2.66,1.93,3.85,2.61,6.05.28,1.38-.15,3.09-2.43,3.09Z"/>
    <g>
      <path class="cls-2" d="M200.1,113.32s-.28,3.59,1.1,4.14c1.38.55,25.65-8.14,25.65-8.14,0,0,.13-5.52-3.14-3.66-2.48,1.41-23.61,7.66-23.61,7.66Z"/>
      <path class="cls-2" d="M201.15,105.57s-2.23,2.82-1.39,4.05c.84,1.23,25.83,7.57,25.83,7.57,0,0,3.19-4.51-.56-4.79-2.85-.21-23.87-6.83-23.87-6.83Z"/>
    </g>
  </g>
  <path class="cls-2" d="M233.06,62.66c.04,3.9.02,8.56-.12,13.23,6.19,14.19,9.63,29.84,9.63,46.29,0,64.06-52.12,116.18-116.18,116.18S10.22,186.24,10.22,122.18,62.33,6,126.39,6c21.51,0,41.66,5.88,58.96,16.11,1.27-1.33,2.79-2.86,4.44-4.34C171.3,6.5,149.59,0,126.39,0,59.02,0,4.22,54.81,4.22,122.18s54.81,122.18,122.18,122.18,122.18-54.81,122.18-122.18c0-21.59-5.64-41.89-15.51-59.51Z"/>
  <g>
    <g>
      <path class="cls-2" d="M230.46,70.22h-10.87v5h10.87c1.38,0,2.5-1.12,2.5-2.5s-1.12-2.5-2.5-2.5Z"/>
      <path class="cls-2" d="M171.59,75.22v-5h-7.37c1.4,1.58,2.73,3.25,3.99,5h3.39Z"/>
    </g>
    <path class="cls-2" d="M222.92,35.65h-54c-1.38,0-2.5-1.12-2.5-2.5s1.12-2.5,2.5-2.5h54c1.38,0,2.5,1.12,2.5,2.5s-1.12,2.5-2.5,2.5Z"/>
    <path class="cls-2" d="M231.25,42.1h-71.67c-1.38,0-2.5-1.12-2.5-2.5s1.12-2.5,2.5-2.5h71.67c1.38,0,2.5,1.12,2.5,2.5s-1.12,2.5-2.5,2.5Z"/>
    <path class="cls-2" d="M217.59,81.22l-39.75-.12s-.9-1.53-1.62-2.5c-.77-1.03-2.5-1.92-2.5-1.92l-.13-25.46h44v30Z"/>
    <path class="cls-2" d="M235.76,97.27s-1.69,1.33-2.33,1.7c-.69.39-2.94,1.29-2.94,1.29l1.14-58.04h4.56l-.43,55.05Z"/>
    <path class="cls-2" d="M240.41,43.14s1.08,2.82,1.13,4.04c.05,1.18,0,2.65,0,2.65l-48.18-36.26,2.25-3.99,44.79,33.56Z"/>
    <path class="cls-2" d="M150.77,43.14s-1.08,2.82-1.13,4.04c-.05,1.18,0,2.65,0,2.65l48.18-36.26-2.19-3.99-44.85,33.56Z"/>
    <path class="cls-2" d="M203.79,21.65h-16.73c-1.38,0-2.5-1.12-2.5-2.5s1.12-2.5,2.5-2.5h16.73c1.38,0,2.5,1.12,2.5,2.5s-1.12,2.5-2.5,2.5Z"/>
    <path class="cls-2" d="M212.44,28.65h-34.04c-1.38,0-2.5-1.12-2.5-2.5s1.12-2.5,2.5-2.5h34.04c1.38,0,2.5,1.12,2.5,2.5s-1.12,2.5-2.5,2.5Z"/>
    <path class="cls-2" d="M159.59,42.22h-5v19.23c1.73,1.27,3.4,2.63,5,4.09v-23.31Z"/>
  </g>
  <g>
    <path class="cls-2" d="M11.21,152.34l3.44,4.91c.23-.16,20.19-13.94,51.66-23.54-.81-1.83-1.52-3.71-2.13-5.64-32.05,9.78-52,23.58-52.96,24.26Z"/>
    <path class="cls-2" d="M241.91,155.05c-22.1-14.86-45.4-25.27-69.46-31.06-.46,1.96-1.02,3.89-1.68,5.77,23.47,5.61,46.21,15.76,67.8,30.28l3.35-4.98Z"/>
  </g>
  <g class="cls-4">
    <path class="cls-2" d="M153.54,179.46c26.41,6.85,78.7.09,78.7.09,0,0,2.89-6.61,9.05-22.54-20.58,10.56-53.78,10.2-97.14,3.7-7.87,4.2-16.86,6.59-26.4,6.59-14.73,0-28.12-5.67-38.14-14.94-38.99-.34-65.42,10.52-65.42,10.52l.34,1.4c1,4.98,9.77,22.75,22.4,36.61,50.82,6.6,88.95-3.36,128.06,18.46-28.87-8.94-90.91-4.98-106.27-1.93,0,0,26.79,25.15,72.6,23.96,56.19-1.46,69.9-25.48,88.19-42.53,0,0-15.32,4.84-67.75-9.56-80.07-21.99-108.29-2.39-108.29-2.39,0,0,14.82-11.39,31.45-13.96,24.29-3.75,52.22-.33,78.62,6.52Z"/>
  </g>
  <g>
    <path class="cls-1" d="M119.75,109.74c-.56.38-1.11.77-1.66,1.18.54-.4,1.1-.79,1.66-1.18Z"/>
    <path class="cls-1" d="M119.08,110.18c-.11.09-.22.19-.33.28.11-.09.22-.19.33-.28Z"/>
    <path class="cls-1" d="M117.88,110.85h0c.69-.37,1.38-.72,2.08-1.05-.7.34-1.39.68-2.08,1.05h0Z"/>
    <path class="cls-1" d="M118.27,110.39c.43-.05.86-.1,1.29-.14-.42.04-.83.1-1.25.15-.01,0-.03,0-.04,0Z"/>
    <path class="cls-1" d="M119.13,110.22s.02,0,.03,0c-.16.07-.32.14-.48.21.15-.07.3-.15.45-.21Z"/>
    <path class="cls-1" d="M119.93,109.75c-.68.37-1.35.75-2.01,1.15.66-.39,1.33-.78,2.01-1.15Z"/>
    <path class="cls-1" d="M119.26,110.06c-.23.18-.46.36-.69.54.23-.18.46-.36.69-.54Z"/>
    <path class="cls-1" d="M119.59,109.9c-.45.28-.9.56-1.34.86.44-.29.89-.58,1.34-.86Z"/>
    <path class="cls-3" d="M119.48,109.87c-.38.3-.75.61-1.12.92.37-.31.74-.62,1.12-.92Z"/>
    <path class="cls-3" d="M119.42,109.94c-.34.25-.67.51-1,.77.33-.26.66-.52,1-.77Z"/>
    <path class="cls-3" d="M119.25,110.13c-.22.13-.43.26-.65.4.22-.13.43-.27.65-.4Z"/>
    <path class="cls-3" d="M119.27,110.09c-.24.15-.48.31-.71.47.23-.16.47-.31.71-.47Z"/>
    <path class="cls-3" d="M119.31,110.15c-.26.12-.52.24-.77.36.26-.12.51-.24.77-.36Z"/>
    <polygon class="cls-3" points="118.92 110.33 118.92 110.32 118.92 110.32 118.92 110.33"/>
    <path class="cls-1" d="M119.75,109.74c-.56.38-1.11.77-1.66,1.18.54-.4,1.1-.79,1.66-1.18Z"/>
    <path class="cls-1" d="M119.08,110.18c-.11.09-.22.19-.33.28.11-.09.22-.19.33-.28Z"/>
    <path class="cls-1" d="M117.88,110.85h0c.69-.37,1.38-.72,2.08-1.05-.7.34-1.39.68-2.08,1.05h0Z"/>
    <path class="cls-1" d="M118.27,110.39c.43-.05.86-.1,1.29-.14-.42.04-.83.1-1.25.15-.01,0-.03,0-.04,0Z"/>
    <path class="cls-1" d="M119.13,110.22s.02,0,.03,0c-.16.07-.32.14-.48.21.15-.07.3-.15.45-.21Z"/>
    <path class="cls-1" d="M119.93,109.75c-.68.37-1.35.75-2.01,1.15.66-.39,1.33-.78,2.01-1.15Z"/>
    <path class="cls-1" d="M119.26,110.06c-.23.18-.46.36-.69.54.23-.18.46-.36.69-.54Z"/>
    <path class="cls-1" d="M119.59,109.9c-.45.28-.9.56-1.34.86.44-.29.89-.58,1.34-.86Z"/>
    <path class="cls-3" d="M119.48,109.87c-.38.3-.75.61-1.12.92.37-.31.74-.62,1.12-.92Z"/>
    <path class="cls-3" d="M119.42,109.94c-.34.25-.67.51-1,.77.33-.26.66-.52,1-.77Z"/>
    <path class="cls-3" d="M119.25,110.13c-.22.13-.43.26-.65.4.22-.13.43-.27.65-.4Z"/>
    <path class="cls-3" d="M119.27,110.09c-.24.15-.48.31-.71.47.23-.16.47-.31.71-.47Z"/>
    <path class="cls-3" d="M119.31,110.15c-.26.12-.52.24-.77.36.26-.12.51-.24.77-.36Z"/>
    <polygon class="cls-3" points="118.92 110.33 118.92 110.32 118.92 110.32 118.92 110.33"/>
    <path class="cls-1" d="M144.44,65.02c-.26-.15-.52-.29-.79-.44.26.14.53.29.79.44Z"/>
    <path class="cls-1" d="M142.36,63.9c-.28-.14-.56-.28-.84-.41.28.14.56.27.84.41Z"/>
    <path class="cls-1" d="M148.41,67.52c-.21-.15-.43-.3-.64-.44.22.14.43.29.64.44Z"/>
    <path class="cls-1" d="M150.22,68.83c-.16-.12-.32-.25-.48-.37.16.12.32.25.48.37Z"/>
    <path class="cls-1" d="M146.46,66.23c-.24-.15-.48-.3-.73-.45.24.15.49.3.73.45Z"/>
    <path class="cls-1" d="M155.81,73.7c.25.25.49.5.73.76-.24-.25-.49-.5-.73-.75,0,0,0,0,0,0Z"/>
    <path class="cls-1" d="M163.28,83.17c-.31-.51-.63-1.01-.96-1.5.33.49.65.99.96,1.5Z"/>
    <path class="cls-1" d="M158.55,76.68c-.3-.36-.62-.71-.93-1.06.31.35.62.7.93,1.06Z"/>
    <path class="cls-1" d="M161.93,81.09c-.42-.62-.85-1.22-1.29-1.81.44.59.87,1.2,1.29,1.81Z"/>
    <path class="cls-1" d="M160.1,78.6c-.29-.38-.59-.75-.89-1.12.3.37.6.75.89,1.12Z"/>
    <path class="cls-1" d="M164.84,85.87c-.38-.71-.78-1.39-1.19-2.08.41.68.81,1.37,1.19,2.08Z"/>
    <path class="cls-2" d="M66.76,138.74c10.55,19.59,30.75,30.73,51.57,30.73,9.36,0,18.84-2.25,27.64-6.99,13.73-7.4,23.76-19.72,28.25-34.7,4.49-14.98,2.89-30.79-4.51-44.52-15.29-28.38-50.83-39.04-79.21-23.74-13.73,7.4-23.76,19.72-28.25,34.7-4.49,14.98-2.89,30.79,4.51,44.52ZM67.54,95.81c2.94-9.81,8.51-18.34,16.07-24.86.11-.09.22-.19.33-.28.37-.31.74-.62,1.12-.92.23-.18.46-.36.69-.54.33-.26.66-.52,1-.77.54-.4,1.1-.79,1.66-1.17.23-.16.47-.31.71-.47.44-.29.89-.58,1.34-.85.22-.13.43-.27.65-.4.66-.4,1.33-.78,2.01-1.15,0,0,0,0,0,0h0c.69-.37,1.38-.72,2.08-1.05.26-.12.51-.25.77-.36.15-.07.3-.14.45-.21.01,0,.02,0,.03,0,4.96-2.24,10.11-3.66,15.29-4.29-.01,0-.03,0-.04,0,.43-.05.86-.1,1.29-.14.1,0,.19-.02.29-.03.74-.07,1.48-.12,2.22-.15.18,0,.36-.02.54-.02.7-.03,1.4-.05,2.1-.05.04,0,.07,0,.11,0,.24,0,.48.01.71.02.57,0,1.14.02,1.71.05.31.01.62.04.93.06.49.03.99.07,1.48.11.34.03.67.07,1.01.11.46.05.93.11,1.39.17.35.05.7.1,1.05.16.44.07.89.15,1.33.23.36.07.71.13,1.07.21.43.09.86.19,1.28.29.36.08.72.17,1.08.26.42.11.83.22,1.24.34.36.1.73.2,1.09.31.4.12.8.26,1.2.39.78.26,1.55.53,2.31.82.29.11.59.22.89.34.44.18.88.37,1.31.56.29.13.58.25.87.38.44.2.87.41,1.3.62.28.14.56.27.84.41.43.22.87.45,1.3.69.26.14.53.29.79.44.43.25.87.5,1.29.76.24.15.49.3.73.45.44.27.87.55,1.3.84.22.14.43.29.64.44.45.31.89.62,1.33.94.16.12.32.25.48.37,1.96,1.48,3.83,3.11,5.59,4.88,0,0,0,0,0,0,.25.25.49.5.73.76.36.38.72.77,1.08,1.16.31.35.62.7.93,1.06.22.26.44.53.66.8.3.37.6.75.89,1.12.18.23.36.45.53.69.44.59.87,1.2,1.29,1.81.13.19.26.39.38.58.33.49.65.99.96,1.5.13.21.26.42.38.63.41.68.81,1.37,1.19,2.08,0,0,0,.01.01.02,6.7,12.43,8.15,26.75,4.08,40.31-2.97,9.9-8.62,18.51-16.29,25.05-.06.05-.12.1-.18.15-.59.5-1.2.98-1.81,1.46-.12.09-.24.19-.36.28-.57.43-1.15.84-1.73,1.25-.17.12-.34.24-.51.36-.57.39-1.16.76-1.75,1.13-.19.12-.37.24-.56.36-.78.47-1.57.93-2.39,1.37-.55.3-1.1.58-1.66.86-.16.08-.32.15-.48.23-.41.2-.82.39-1.23.57-.17.08-.34.15-.51.22-.42.19-.85.37-1.27.54-.14.06-.28.11-.42.17-.5.2-1.01.39-1.52.58-.06.02-.12.04-.17.06-5.81,2.09-11.82,3.1-17.77,3.1-3.73,0-7.44-.4-11.07-1.17-.04,0-.07-.02-.11-.02-.61-.13-1.21-.27-1.81-.42-.03,0-.06-.01-.1-.02h0c-13.88-3.53-26.31-12.61-33.62-26.19-6.7-12.43-8.15-26.75-4.08-40.31Z"/>
    <path class="cls-3" d="M143.65,64.58c-.43-.23-.86-.47-1.3-.69.43.22.87.45,1.3.69Z"/>
    <path class="cls-3" d="M149.74,68.46c-.44-.32-.88-.63-1.33-.94.45.31.89.62,1.33.94Z"/>
    <path class="cls-3" d="M147.77,67.07c-.43-.29-.87-.57-1.3-.84.44.27.87.55,1.3.84Z"/>
    <path class="cls-3" d="M163.66,83.8c-.12-.21-.25-.42-.38-.63.13.21.26.42.38.63Z"/>
    <path class="cls-3" d="M145.73,65.78c-.43-.26-.86-.51-1.29-.76.43.25.87.5,1.29.76Z"/>
    <path class="cls-3" d="M162.31,81.67c-.13-.19-.25-.39-.38-.58.13.19.26.39.38.58Z"/>
    <path class="cls-3" d="M160.64,79.28c-.17-.23-.35-.46-.53-.69.18.23.36.45.53.69Z"/>
    <path class="cls-3" d="M159.21,77.47c-.22-.27-.44-.53-.66-.8.22.26.44.53.66.8Z"/>
    <path class="cls-3" d="M157.62,75.62c-.36-.39-.71-.78-1.08-1.16.36.38.72.77,1.08,1.16Z"/>
    <path class="cls-1" d="M144.44,65.02c-.26-.15-.52-.29-.79-.44.26.14.53.29.79.44Z"/>
    <path class="cls-1" d="M142.36,63.9c-.28-.14-.56-.28-.84-.41.28.14.56.27.84.41Z"/>
    <path class="cls-1" d="M148.41,67.52c-.21-.15-.43-.3-.64-.44.22.14.43.29.64.44Z"/>
    <path class="cls-1" d="M150.22,68.83c-.16-.12-.32-.25-.48-.37.16.12.32.25.48.37Z"/>
    <path class="cls-1" d="M146.46,66.23c-.24-.15-.48-.3-.73-.45.24.15.49.3.73.45Z"/>
    <path class="cls-1" d="M155.81,73.7c.25.25.49.5.73.76-.24-.25-.49-.5-.73-.75,0,0,0,0,0,0Z"/>
    <path class="cls-1" d="M163.28,83.17c-.31-.51-.63-1.01-.96-1.5.33.49.65.99.96,1.5Z"/>
    <path class="cls-1" d="M158.55,76.68c-.3-.36-.62-.71-.93-1.06.31.35.62.7.93,1.06Z"/>
    <path class="cls-1" d="M161.93,81.09c-.42-.62-.85-1.22-1.29-1.81.44.59.87,1.2,1.29,1.81Z"/>
    <path class="cls-1" d="M160.1,78.6c-.29-.38-.59-.75-.89-1.12.3.37.6.75.89,1.12Z"/>
    <path class="cls-1" d="M164.84,85.87c-.38-.71-.78-1.39-1.19-2.08.41.68.81,1.37,1.19,2.08Z"/>
    <path class="cls-3" d="M143.65,64.58c-.43-.23-.86-.47-1.3-.69.43.22.87.45,1.3.69Z"/>
    <path class="cls-3" d="M149.74,68.46c-.44-.32-.88-.63-1.33-.94.45.31.89.62,1.33.94Z"/>
    <path class="cls-3" d="M147.77,67.07c-.43-.29-.87-.57-1.3-.84.44.27.87.55,1.3.84Z"/>
    <path class="cls-3" d="M163.66,83.8c-.12-.21-.25-.42-.38-.63.13.21.26.42.38.63Z"/>
    <path class="cls-3" d="M145.73,65.78c-.43-.26-.86-.51-1.29-.76.43.25.87.5,1.29.76Z"/>
    <path class="cls-3" d="M162.31,81.67c-.13-.19-.25-.39-.38-.58.13.19.26.39.38.58Z"/>
    <path class="cls-3" d="M160.64,79.28c-.17-.23-.35-.46-.53-.69.18.23.36.45.53.69Z"/>
    <path class="cls-3" d="M159.21,77.47c-.22-.27-.44-.53-.66-.8.22.26.44.53.66.8Z"/>
    <path class="cls-3" d="M157.62,75.62c-.36-.39-.71-.78-1.08-1.16.36.38.72.77,1.08,1.16Z"/>
    <g>
      <polygon class="cls-2" points="156.47 147.62 156.47 147.63 156.48 147.63 156.47 147.62"/>
      <path class="cls-2" d="M120.9,153.57c19.05-2.48,32.77-12.43,41.1-20.62,2.33-2.29,4.34-4.54,6.09-6.66.19-.62.36-1.19.5-1.73h.02c.98-3.62,1.55-7.3,1.74-10.98-4.3,7.13-21.11,31.5-51.74,34.7-1.53-4.31-2.46-8.86-3.01-13.01,30.79-9.5,45.97-30.45,51.98-41.23-.78-2.26-1.72-4.47-2.82-6.64-3.39,7.11-17.2,31.75-49.72,42.25-.52-7.46-.12-13.88.13-16.73,10.06-4.4,19.98-12.41,29.54-23.83,5.23-6.25,8.9-11.84,10.69-14.72-.04-.04-.08-.09-.13-.13h0c-1.26-1.27-2.62-2.49-4.04-3.64-.78,1.28-2.32,3.73-4.54,6.85-3.51-3.35-15.78-14.07-32.74-18.43-.71.06-1.42.11-2.12.19h0c-4.56.57-9.01,1.73-13.27,3.47,23.57-.45,42.07,16.59,44.8,19.24-2.78,3.58-6.16,7.55-10.04,11.4-2.56-2.83-7.5-7.7-14.6-12.01-8.21-4.99-20.72-9.95-36.37-8.2-.1.1-.21.19-.31.29l-.39.39c-1.87,1.83-3.6,3.83-5.18,5.94,13.77-3.25,26.95-1.19,39.2,6.19,6.65,4.01,11.31,8.63,13.61,11.18-4.75,4.18-10.08,7.95-15.85,10.55-4.44-5.24-19.21-20.08-42.68-18.26-.85,1.88-1.6,3.82-2.23,5.8,2.95-.39,5.77-.51,8.43-.37-2.45,6.94-7.01,23.27-3.96,42.22.12.2.23.4.35.59,2.27,3.83,4.98,7.3,8.09,10.39-8.17-23.6-1.26-45.98,1.17-52.54,5.03.94,9.42,2.71,13.13,4.76-3.13,7.38-11.04,31,1.49,58.5,2.47,1.08,4.98,1.97,7.5,2.65-14.34-26.35-7.33-50.19-4.22-58.14,4.83,3.46,7.95,7,9.21,8.57-.62,6.31-2.56,35.92,11.14,51.3.2,0,.71-.01.71-.02h0c2-.12,4.26-.4,6.42-.81-2.94-2.29-5.33-5.31-7.11-8.71Z"/>
    </g>
  </g>
</svg>