<?xml version="1.0" encoding="utf-8"?>
<!-- Generator: Adobe Illustrator 24.3.0, SVG Export Plug-In . SVG Version: 6.00 Build 0)  -->
<svg version="1.1" id="Ebene_1" xmlns="http://www.w3.org/2000/svg" xmlns:xlink="http://www.w3.org/1999/xlink" x="0px" y="0px"
	 width="161.6px" height="60px" viewBox="0 0 161.6 60" style="enable-background:new 0 0 161.6 60;" xml:space="preserve">
<style type="text/css">
	.st0{fill:#FFED00;}
	.st1{clip-path:url(#SVGID_2_);}
	.st2{clip-path:url(#SVGID_4_);}
	.st3{clip-path:url(#SVGID_6_);}
</style>
<g>
	<rect x="122.1" y="10" class="st0" width="39.4" height="39.4"/>
	<g>
		<g>
			<g>
				<g>
					<defs>
						<rect id="SVGID_1_" y="10" width="161.6" height="39.9"/>
					</defs>
					<clipPath id="SVGID_2_">
						<use xlink:href="#SVGID_1_"  style="overflow:visible;"/>
					</clipPath>
					<path class="st1" d="M106.5,23.2h-3.1v8.9h3.1v-4.6c0-1.2,0.3-2.1,1.6-2.1c1.6,0,1.4,1.5,1.4,2.3v4.4h3.1v-5.6
						c0-2.2-0.9-3.7-3.4-3.7c-1.3,0-2.1,0.3-2.9,1.4l0,0C106.5,24.3,106.5,23.2,106.5,23.2z M101.7,27.8c0-3-1.7-5-4.9-5
						c-2.9,0-5,1.7-5,4.8c0,3.1,2.2,4.8,5.2,4.8c1,0,2.1-0.2,2.9-0.7s1.4-1.3,1.7-2.3h-3.1c-0.3,0.6-0.8,0.8-1.5,0.8
						c-1.3,0-2-0.7-2-2h6.6C101.7,28.1,101.7,27.8,101.7,27.8z M95.1,26.3c0.2-0.9,0.9-1.4,1.9-1.4c0.8,0,1.6,0.6,1.7,1.4H95.1z
						 M90.6,23.4c-0.9-0.5-2-0.6-2.9-0.6c-2,0-3.9,0.9-3.9,3.1c0,1.6,1,2.1,2,2.3c1,0.2,2,0.3,2,1c0,0.5-0.6,0.7-1,0.7
						c-0.8,0-1.9-0.5-2.6-0.9l-1.2,2.2c1,0.7,2.3,1,3.6,1c2.1,0,4.2-0.9,4.2-3.4c0-1.6-1.2-2.3-2.6-2.7c-0.5-0.1-1.4-0.2-1.4-0.8
						c0-0.5,0.6-0.6,1-0.6c0.6,0,1.2,0.1,1.7,0.5L90.6,23.4z M80.2,17.9c-0.9,0-1.7,0.8-1.7,1.7c0,0.9,0.8,1.7,1.7,1.7
						s1.7-0.8,1.7-1.7C81.9,18.7,81.1,17.9,80.2,17.9 M81.7,23.2h-3.1v8.9h3.1V23.2z M76.9,27.8c0-3-1.7-5-4.9-5c-2.9,0-5,1.7-5,4.8
						c0,3.1,2.2,4.8,5.2,4.8c1,0,2.1-0.2,2.9-0.7s1.4-1.3,1.7-2.3h-3c-0.3,0.6-0.8,0.8-1.5,0.8c-1.3,0-2-0.7-2-2H77
						C76.9,28.1,76.9,27.8,76.9,27.8z M70.3,26.3c0.2-0.9,0.9-1.4,1.9-1.4c0.8,0,1.6,0.6,1.7,1.4H70.3z M64.3,25.7h2.2v-2.6h-2.2
						v-1.5c0-1,0.2-1.5,1-1.5c0.5,0,0.7,0.1,1.2,0.3v-2.7c-0.5-0.2-0.9-0.3-1.4-0.3c-1.2,0-2.3,0.5-3.1,1.4C61,19.9,61,20.7,61,22
						v1.2h-1.2v2.6H61v6.4h3.1C64.3,32.1,64.3,25.7,64.3,25.7z M57.2,25.7h2.2v-2.6h-2.2v-1.5c0-1,0.2-1.5,1-1.5
						c0.5,0,0.7,0.1,1.2,0.3v-2.7c-0.5-0.2-0.9-0.3-1.4-0.3c-1.2,0-2.3,0.5-3.1,1.4c-0.8,1-0.9,1.9-0.9,3.1v1.2h-1.2v2.6h1.2v6.4
						h3.1L57.2,25.7L57.2,25.7z M49.9,17.9c-0.9,0-1.7,0.8-1.7,1.7c0,0.9,0.8,1.7,1.7,1.7c0.9,0,1.7-0.8,1.7-1.7
						C51.6,18.7,50.8,17.9,49.9,17.9 M51.5,23.2h-3.1v8.9h3.1V23.2z M46.2,23.2H43V24c-0.7-0.8-1.7-1.2-2.8-1.2
						c-2.7,0-4.5,2.2-4.5,4.8s1.9,4.8,4.5,4.8c1,0,2.1-0.3,2.7-1.3l0,0v1h3.1C46.2,32.1,46.2,23.2,46.2,23.2z M41.1,25.6
						c1.3,0,2.1,0.9,2.1,2c0,1.2-0.7,2-2.1,2c-1.3,0-2.1-0.9-2.1-2C39,26.5,39.8,25.6,41.1,25.6 M28.2,21.5h0.3
						c1.2,0,2.3,0.2,2.3,1.6s-1.3,1.6-2.3,1.6h-0.3V21.5z M31.6,26.8c1.9-0.3,2.9-1.9,2.9-3.7c0-2.8-2-4.1-4.5-4.1h-5.1v13.1h3.4v-5
						l0,0l3.2,5h4.3L31.6,26.8z"/>
				</g>
			</g>
		</g>
		<g>
			<g>
				<g>
					<defs>
						<rect id="SVGID_3_" y="10" width="161.6" height="39.9"/>
					</defs>
					<clipPath id="SVGID_4_">
						<use xlink:href="#SVGID_3_"  style="overflow:visible;"/>
					</clipPath>
					<path class="st2" d="M106.5,40.6h-3.1v8.9h3.1v-4.6c0-1.2,0.3-2.1,1.6-2.1c1.6,0,1.4,1.5,1.4,2.3v4.4h3.1v-5.6
						c0-2.2-0.9-3.7-3.4-3.7c-1.3,0-2.1,0.3-2.9,1.4l0,0C106.5,41.7,106.5,40.6,106.5,40.6z M101.8,45.2c0-3-1.7-5-4.9-5
						c-2.9,0-5,1.7-5,4.8c0,3.1,2.2,4.8,5.2,4.8c1,0,2.1-0.2,2.9-0.7c0.8-0.5,1.4-1.3,1.7-2.3h-3.2c-0.3,0.6-0.8,0.8-1.5,0.8
						c-1.3,0-2-0.7-2-2h6.6v-0.3C101.7,45.2,101.8,45.2,101.8,45.2z M95.2,43.8c0.2-0.9,0.9-1.4,1.9-1.4c0.8,0,1.6,0.6,1.7,1.4H95.2
						z M81.1,35.1v14.4h3.1V45c0-1,0.3-2.1,1.6-2.1c1.3,0,1.4,1,1.4,2.1v4.5h3.2V44c0-2.2-1-3.7-3.4-3.7c-1.3,0-2.1,0.5-2.9,1.4l0,0
						v-6.6C84.2,35.1,81.1,35.1,81.1,35.1z M79,40.8c-0.6-0.3-1.4-0.6-2.1-0.6c-2.8,0-5,2-5,4.9c0,2.7,2.2,4.6,4.9,4.6
						c0.8,0,1.5-0.1,2.2-0.5v-2.7c-0.5,0.3-1,0.6-1.6,0.6c-1.3,0-2.2-0.9-2.2-2.2s0.9-2.2,2.2-2.2c0.6,0,1.2,0.2,1.6,0.6V40.8z
						 M67.6,40.6h-3.1v8.9h3.1v-3.6c0-1.5,0.5-2.7,2.2-2.7c0.5,0,0.9,0,1.4,0.3v-3h-0.6c-1.3,0-2.3,0.5-2.9,1.6l0,0
						C67.6,42.1,67.6,40.6,67.6,40.6z M60.8,35.3c-0.9,0-1.7,0.8-1.7,1.7c0,0.9,0.8,1.7,1.7,1.7c0.9,0,1.7-0.8,1.7-1.7
						C62.5,36.1,61.8,35.3,60.8,35.3 M62.4,40.6h-3.2v8.9h3.1L62.4,40.6L62.4,40.6z M50.3,35.1h-3.1v14.4h3.1v-3.6l3.5,3.6h4.4
						l-4.8-4.8l4.5-4.2h-4.3l-3.2,3.2v-8.7C50.5,35.1,50.3,35.1,50.3,35.1z M45.2,40.9c-0.9-0.5-2-0.6-2.9-0.6c-2,0-3.9,0.9-3.9,3.1
						c0,1.6,1,2.1,2,2.3c1,0.2,2,0.3,2,1c0,0.5-0.6,0.7-1,0.7c-0.8,0-1.9-0.5-2.6-0.9l-1.2,2.2c1,0.7,2.3,1,3.6,1
						c2.1,0,4.2-0.9,4.2-3.4c0-1.6-1.2-2.3-2.6-2.7c-0.5-0.1-1.4-0.1-1.4-0.8c0-0.5,0.6-0.6,1-0.6c0.6,0,1.2,0.1,1.7,0.5L45.2,40.9z
						 M30,40.6h-3.1v8.9H30v-4.6c0-1.2,0.3-2.1,1.6-2.1c1.6,0,1.4,1.5,1.4,2.3v4.4h3.1v-5.6c0-2.2-0.9-3.7-3.4-3.7
						c-1.3,0-2.1,0.3-2.9,1.4l0,0L30,40.6L30,40.6z M15.3,40.6V46c0,2.9,2.1,3.8,4.8,3.8s4.8-0.9,4.8-3.8v-5.3h-3.1v4.8
						c0,1.2-0.2,2-1.6,2s-1.6-0.8-1.6-2v-4.8C18.4,40.6,15.3,40.6,15.3,40.6z M7,42.2v2.7h2.8c-0.1,1.5-1.3,2.3-2.8,2.3
						c-2.2,0-3.5-2.1-3.5-4.1c0-2,1.2-4.2,3.4-4.2c1.4,0,2.3,0.8,2.8,2.1l3.2-1.4c-1.2-2.4-3.2-3.7-5.9-3.7c-4.2,0-7.1,2.8-7.1,7.1
						c0,4.2,2.9,7,7,7c2.2,0,4.2-0.8,5.5-2.6c1.2-1.6,1.3-3.2,1.4-5.2C13.7,42.2,7,42.2,7,42.2z"/>
				</g>
			</g>
		</g>
		<g>
			<g>
				<g>
					<defs>
						<rect id="SVGID_5_" y="10" width="161.6" height="39.9"/>
					</defs>
					<clipPath id="SVGID_6_">
						<use xlink:href="#SVGID_5_"  style="overflow:visible;"/>
					</clipPath>
					<path class="st3" d="M141.9,34.4l-12.1,12.1l-4.8-4.8l12.1-12.1l-2.3-2.3v-4.8l-1.7-1.7v3.9l-1.6,1.6l-5.8-5.9l-1.6,1.6
						c0-1,0.2-4.5,3.1-7.3c3.1-3,6.3-1.3,7.4-0.2l5.7,5.7l-1.4,1.4l3.1,3.1l3.1-3.1l-1.4-1.4l5.7-5.7c1-1,4.3-2.9,7.4,0.2
						c2.8,2.8,3,6.3,3,7.3l-1.6-1.6l-5.9,5.9l-1.6-1.6v-3.9l-1.7,1.7v4.6l-2.3,2.3l12.1,12.1l-4.8,4.8L141.9,34.4z"/>
				</g>
			</g>
		</g>
	</g>
</g>
</svg>
